<mxfile host="app.diagrams.net" agent="Mozilla/5.0 (Macintosh; Intel Mac OS X 10_15_7) AppleWebKit/537.36 (KHTML, like Gecko) Chrome/139.0.0.0 Safari/537.36" version="28.0.9">
  <diagram name="Page-1" id="b_ohoWjHpFIqI_drD8ev">
    <mxGraphModel grid="1" page="1" gridSize="10" guides="1" tooltips="1" connect="1" arrows="1" fold="1" pageScale="1" pageWidth="850" pageHeight="1100" math="0" shadow="0">
      <root>
        <mxCell id="0" />
        <mxCell id="1" parent="0" />
        <mxCell id="VlpDXsIO-DrW601zX8-2-7" style="edgeStyle=orthogonalEdgeStyle;rounded=0;orthogonalLoop=1;jettySize=auto;html=1;" edge="1" parent="1" source="VlpDXsIO-DrW601zX8-2-17" target="VlpDXsIO-DrW601zX8-2-5">
          <mxGeometry relative="1" as="geometry" />
        </mxCell>
        <mxCell id="VlpDXsIO-DrW601zX8-2-19" value="ITI-38&lt;br&gt;ITI-39" style="edgeLabel;html=1;align=center;verticalAlign=middle;resizable=0;points=[];" connectable="0" vertex="1" parent="VlpDXsIO-DrW601zX8-2-7">
          <mxGeometry x="-0.1455" y="1" relative="1" as="geometry">
            <mxPoint x="-13" y="19" as="offset" />
          </mxGeometry>
        </mxCell>
        <mxCell id="VlpDXsIO-DrW601zX8-2-1" value="Radiology" style="rounded=0;whiteSpace=wrap;html=1;fillColor=#dae8fc;strokeColor=#6c8ebf;" vertex="1" parent="1">
          <mxGeometry x="870" y="120" width="120" height="60" as="geometry" />
        </mxCell>
        <mxCell id="VlpDXsIO-DrW601zX8-2-8" style="edgeStyle=orthogonalEdgeStyle;rounded=0;orthogonalLoop=1;jettySize=auto;html=1;entryX=0.5;entryY=0.5;entryDx=0;entryDy=0;entryPerimeter=0;" edge="1" parent="1" source="VlpDXsIO-DrW601zX8-2-2" target="VlpDXsIO-DrW601zX8-2-11">
          <mxGeometry relative="1" as="geometry" />
        </mxCell>
        <mxCell id="VlpDXsIO-DrW601zX8-2-25" value="PCC-44&lt;br&gt;ITI-67??&lt;br&gt;ITI-68??" style="edgeLabel;html=1;align=center;verticalAlign=middle;resizable=0;points=[];" connectable="0" vertex="1" parent="VlpDXsIO-DrW601zX8-2-8">
          <mxGeometry x="-0.1636" y="2" relative="1" as="geometry">
            <mxPoint x="-92" y="18" as="offset" />
          </mxGeometry>
        </mxCell>
        <mxCell id="VlpDXsIO-DrW601zX8-2-2" value="Greater Manchester Care Record" style="rounded=0;whiteSpace=wrap;html=1;fillColor=#d5e8d4;strokeColor=#82b366;" vertex="1" parent="1">
          <mxGeometry x="670" y="270" width="120" height="60" as="geometry" />
        </mxCell>
        <mxCell id="VlpDXsIO-DrW601zX8-2-10" style="edgeStyle=orthogonalEdgeStyle;rounded=0;orthogonalLoop=1;jettySize=auto;html=1;entryX=0.5;entryY=0.5;entryDx=0;entryDy=0;entryPerimeter=0;" edge="1" parent="1" source="VlpDXsIO-DrW601zX8-2-3" target="VlpDXsIO-DrW601zX8-2-11">
          <mxGeometry relative="1" as="geometry">
            <Array as="points">
              <mxPoint x="370" y="460" />
              <mxPoint x="370" y="300" />
            </Array>
          </mxGeometry>
        </mxCell>
        <mxCell id="VlpDXsIO-DrW601zX8-2-24" value="PCC-44&lt;br&gt;ITI-67&lt;br&gt;ITI-68" style="edgeLabel;html=1;align=center;verticalAlign=middle;resizable=0;points=[];" connectable="0" vertex="1" parent="VlpDXsIO-DrW601zX8-2-10">
          <mxGeometry x="-0.3455" y="-1" relative="1" as="geometry">
            <mxPoint x="-139" y="-19" as="offset" />
          </mxGeometry>
        </mxCell>
        <mxCell id="VlpDXsIO-DrW601zX8-2-3" value="North West GMSA" style="rounded=0;whiteSpace=wrap;html=1;fillColor=#d5e8d4;strokeColor=#82b366;dashed=1;" vertex="1" parent="1">
          <mxGeometry x="670" y="430" width="120" height="60" as="geometry" />
        </mxCell>
        <mxCell id="VlpDXsIO-DrW601zX8-2-4" value="not present" style="rounded=0;whiteSpace=wrap;html=1;dashed=1;" vertex="1" parent="1">
          <mxGeometry x="440" y="270" width="120" height="60" as="geometry" />
        </mxCell>
        <mxCell id="VlpDXsIO-DrW601zX8-2-5" value="National Imaging Registry" style="rounded=0;whiteSpace=wrap;html=1;fillColor=#d5e8d4;strokeColor=#82b366;" vertex="1" parent="1">
          <mxGeometry x="440" y="120" width="120" height="60" as="geometry" />
        </mxCell>
        <mxCell id="VlpDXsIO-DrW601zX8-2-9" value="not present" style="rounded=0;whiteSpace=wrap;html=1;dashed=1;" vertex="1" parent="1">
          <mxGeometry x="440" y="430" width="120" height="60" as="geometry" />
        </mxCell>
        <mxCell id="VlpDXsIO-DrW601zX8-2-11" value="Actor" style="shape=umlActor;verticalLabelPosition=bottom;verticalAlign=top;html=1;outlineConnect=0;" vertex="1" parent="1">
          <mxGeometry x="230" y="270" width="30" height="60" as="geometry" />
        </mxCell>
        <mxCell id="VlpDXsIO-DrW601zX8-2-12" style="edgeStyle=orthogonalEdgeStyle;rounded=0;orthogonalLoop=1;jettySize=auto;html=1;entryX=0.5;entryY=0.5;entryDx=0;entryDy=0;entryPerimeter=0;" edge="1" parent="1" source="VlpDXsIO-DrW601zX8-2-5" target="VlpDXsIO-DrW601zX8-2-11">
          <mxGeometry relative="1" as="geometry">
            <Array as="points">
              <mxPoint x="370" y="150" />
              <mxPoint x="370" y="300" />
            </Array>
          </mxGeometry>
        </mxCell>
        <mxCell id="VlpDXsIO-DrW601zX8-2-29" value="ITI-67&lt;br&gt;ITI-68" style="edgeLabel;html=1;align=center;verticalAlign=middle;resizable=0;points=[];" connectable="0" vertex="1" parent="VlpDXsIO-DrW601zX8-2-12">
          <mxGeometry x="-0.2696" y="2" relative="1" as="geometry">
            <mxPoint as="offset" />
          </mxGeometry>
        </mxCell>
        <mxCell id="VlpDXsIO-DrW601zX8-2-18" value="" style="edgeStyle=orthogonalEdgeStyle;rounded=0;orthogonalLoop=1;jettySize=auto;html=1;" edge="1" parent="1" source="VlpDXsIO-DrW601zX8-2-1" target="VlpDXsIO-DrW601zX8-2-17">
          <mxGeometry relative="1" as="geometry">
            <mxPoint x="870" y="150" as="sourcePoint" />
            <mxPoint x="560" y="150" as="targetPoint" />
          </mxGeometry>
        </mxCell>
        <mxCell id="VlpDXsIO-DrW601zX8-2-17" value="unknown" style="rounded=0;whiteSpace=wrap;html=1;" vertex="1" parent="1">
          <mxGeometry x="670" y="120" width="120" height="60" as="geometry" />
        </mxCell>
        <mxCell id="VlpDXsIO-DrW601zX8-2-21" style="edgeStyle=orthogonalEdgeStyle;rounded=0;orthogonalLoop=1;jettySize=auto;html=1;" edge="1" parent="1" source="VlpDXsIO-DrW601zX8-2-20" target="VlpDXsIO-DrW601zX8-2-2">
          <mxGeometry relative="1" as="geometry" />
        </mxCell>
        <mxCell id="VlpDXsIO-DrW601zX8-2-20" value="Pathology&amp;nbsp;" style="rounded=0;whiteSpace=wrap;html=1;fillColor=#dae8fc;strokeColor=#6c8ebf;" vertex="1" parent="1">
          <mxGeometry x="870" y="270" width="120" height="60" as="geometry" />
        </mxCell>
        <mxCell id="VlpDXsIO-DrW601zX8-2-23" style="edgeStyle=orthogonalEdgeStyle;rounded=0;orthogonalLoop=1;jettySize=auto;html=1;entryX=1;entryY=0.5;entryDx=0;entryDy=0;" edge="1" parent="1" source="VlpDXsIO-DrW601zX8-2-22" target="VlpDXsIO-DrW601zX8-2-3">
          <mxGeometry relative="1" as="geometry" />
        </mxCell>
        <mxCell id="VlpDXsIO-DrW601zX8-2-22" value="Genomics" style="rounded=0;whiteSpace=wrap;html=1;fillColor=#dae8fc;strokeColor=#6c8ebf;" vertex="1" parent="1">
          <mxGeometry x="870" y="430" width="120" height="60" as="geometry" />
        </mxCell>
        <mxCell id="VlpDXsIO-DrW601zX8-2-26" value="NHS England" style="text;html=1;align=center;verticalAlign=middle;whiteSpace=wrap;rounded=0;" vertex="1" parent="1">
          <mxGeometry x="445" y="70" width="110" height="30" as="geometry" />
        </mxCell>
        <mxCell id="VlpDXsIO-DrW601zX8-2-27" value="Region" style="text;html=1;align=center;verticalAlign=middle;whiteSpace=wrap;rounded=0;" vertex="1" parent="1">
          <mxGeometry x="675" y="70" width="110" height="30" as="geometry" />
        </mxCell>
        <mxCell id="VlpDXsIO-DrW601zX8-2-28" value="Systems/NHS Trusts" style="text;html=1;align=center;verticalAlign=middle;whiteSpace=wrap;rounded=0;" vertex="1" parent="1">
          <mxGeometry x="865" y="70" width="125" height="30" as="geometry" />
        </mxCell>
      </root>
    </mxGraphModel>
  </diagram>
</mxfile>
